<svg xmlns="http://www.w3.org/2000/svg" viewBox="0 0 475 478"><path d="M0 238.5V476h474V1H0v237.5m1 0V474h471V3H1v235.5m154.803-112.16c-11.667 3.288-20.185 13.392-22.298 26.447-.539 3.33-1.063 4.188-2.349 3.839-18.131-4.917-20.178-3.679-26.233 15.874-1.022 3.3-2.971 9.6-4.331 14-4.813 15.573-20.449 65.111-23.002 72.878-4.961 15.09-3.331 18.226 10.941 21.049 4.933.976 14.279 2.906 20.77 4.289 6.49 1.384 12.065 2.252 12.388 1.929.651-.651.022-3.864-4.627-23.645-7.691-32.727-7.718-32.293 2.158-35.573 4.903-1.629 4.971-1.706 4.138-4.791-1.562-5.788-.945-19.851 1.001-22.799 2.797-4.239 13.373-8.98 20.035-8.98 9.617 0 19.069 6.933 21.507 15.777.86 3.119 1.373 3.201 8.158 1.319 9.015-2.502 7.816-3.963 23.861 29.047 4.945 10.175 9.023 17.825 9.062 17 .038-.825.514-6 1.056-11.5.543-5.5 1.649-18.775 2.458-29.5a9560.845 9560.845 0 0 1 2.109-27.553c.859-10.84-.839-13.043-11.623-15.082-9.059-1.713-9.132-1.782-7.843-7.365 5.211-22.564-15.432-42.833-37.336-36.66m.03 7.637c-7.225 2.182-14.353 11.92-15.022 20.523l-.311 4 21 4.192c11.55 2.305 21.531 4.218 22.179 4.25.649.032 1.712-2.509 2.363-5.647 3.829-18.44-12.052-32.801-30.209-27.318m-24.822 33.51c-2.193 2.642-.416 6.513 2.989 6.513 2.329 0 3.097-.537 3.593-2.513.723-2.881-.983-5.487-3.593-5.487-.965 0-2.31.669-2.989 1.487m52.533 9.857c-2.358 1.725-1.408 6.247 1.506 7.172 4.331 1.375 7.034-5.33 3.016-7.481-2.422-1.296-2.317-1.303-4.522.309M135.99 199.25c-3.668 2.496-6.487 6.079-7.475 9.5-1.058 3.663 2.247 2.768 4.618-1.25 2.663-4.514 7.322-5.162 6.245-.87-.5 1.991-.322 2.519.731 2.172.765-.252 1.526-1.368 1.691-2.48.222-1.495 1.091-2.043 3.342-2.107 2.739-.078 2.982.157 2.431 2.349-.843 3.358 1.197 3.113 2.611-.314l1.135-2.75.722 3c.744 3.091 1.045 2.765 1.308-1.412.197-3.144 2.651-4.044 2.651-.971 0 1.729.281 2.002 1.158 1.125 1.546-1.546-.328-3.778-5.301-6.315-5.175-2.64-11.709-2.507-15.867.323m-.645 7.293c-.326.849-.341 1.794-.035 2.1.876.876 2.69-.609 2.69-2.202 0-1.919-1.908-1.845-2.655.102m8.14 1.84c-1.332 2.033-2.277 2.352-6.421 2.169-7.538-.334-9.777 1.83-8.098 7.826 1.563 5.583-.5 5.657 17.23-.612 13.492-4.771 17.406-6.766 13.273-6.766-.843 0-1.791-.675-2.107-1.5-.701-1.825-2.745-1.948-4.155-.25-1.935 2.332-7.743 1.534-7.469-1.027.306-2.854-.307-2.811-2.253.16m14.515-.442c0 .518.45 1.219 1 1.559.55.34 1-.084 1-.941s-.45-1.559-1-1.559-1 .423-1 .941m7.364 11.552c-.346.903-.15 2.121.436 2.707 1.524 1.524 4.41.131 4.012-1.935-.443-2.302-3.647-2.858-4.448-.772m-36.591 12.708c-.784 2.129.262 3.799 2.38 3.799 1.485 0 1.906-.565 1.667-2.24-.354-2.476-3.292-3.608-4.047-1.559m88.798 11.37c-3.164 3.165-.941 9.429 3.345 9.429.976 0 2.519-.823 3.429-1.829 4.471-4.94-2.081-12.292-6.774-7.6m24.739 3.929c.005 3.3.192 4.529.415 2.732.222-1.797.218-4.497-.01-6-.229-1.503-.411-.032-.405 3.268m41.197-4.511c-.351.568.054.733.954.388.86-.331 2.346.012 3.302.761 1.571 1.232 1.606 1.195.365-.388-1.517-1.934-3.677-2.289-4.621-.761m10.724 4.511c.025 4.691.167 5.239.651 2.511.851-4.806 3.84-5.365 4.393-.822l.404 3.311-.09-3.5c-.071-2.804-.487-3.5-2.089-3.5-1.117 0-2.287-.883-2.65-2-.358-1.1-.636.7-.619 4m-76.185-3.055c-2.845 3.427 1.078 9.221 4.704 6.948 3.568-2.237 2.285-8.393-1.75-8.393-.965 0-2.295.65-2.954 1.445m16.204 1.635c1.038.605 1.797 2.321 1.866 4.22.067 1.842.317 2.424.589 1.371.776-3.006-.59-6.674-2.474-6.641-1.629.029-1.628.091.019 1.05m14.022 2.92c0 2.475.195 3.488.434 2.25.238-1.238.238-3.262 0-4.5-.239-1.238-.434-.225-.434 2.25m8.916-2.84c.928.737 1.89 2.69 2.137 4.34.317 2.114.41 1.821.313-.992-.109-3.15-.56-4.065-2.138-4.34-1.836-.319-1.861-.238-.312.992m8.975-.282c-.736.467-1.186 1.876-1 3.133.422 2.862 3.332 4.894 4.842 3.384.748-.748.417-1.036-1.121-.978-1.2.046-2.377-.479-2.616-1.167-.276-.793.601-1.293 2.399-1.368l2.833-.119-3-.724c-2.405-.581-2.662-.873-1.298-1.471.936-.41 2.243-.411 2.905-.002.762.471.941.32.488-.411-.838-1.357-2.559-1.464-4.432-.277m16.837.008c0 .436 1.125 1.306 2.5 1.932 1.375.627 2.5 1.613 2.5 2.192 0 1.771-2.923 2.294-4.763.852-1.582-1.24-1.611-1.201-.325.436 1.822 2.32 5.504 1.818 5.861-.798.184-1.345-.717-2.558-2.75-3.703-1.663-.937-3.023-1.347-3.023-.911m23.04.566c-2.648 3.19 1.259 8.205 4.376 5.618 1.881-1.562 2.054-4.2.384-5.87-1.603-1.603-3.295-1.514-4.76.252m12.21-.801c-.687.284-1.25.983-1.25 1.555 0 .631.584.554 1.487-.195 2.002-1.662 4.513-.555 4.513 1.989s-2.511 3.651-4.513 1.989c-1.202-.997-1.487-.951-1.487.239 0 2.087 5.007 1.712 6.387-.478 1.946-3.088-1.566-6.573-5.137-5.099m-63.998 3.849c.011 2.2.216 2.982.455 1.738.239-1.244.23-3.044-.02-4s-.446.062-.435 2.262m52.138-2.074c-.91 2.371.377 4.765 2.357 4.384 1.107-.213 1.753-1.249 1.753-2.81 0-2.851-3.156-4.059-4.11-1.574m-122.86 14.187c-1.423 1.423-1.535 4.031-.956 22.25.737 23.133 1.234 26.982 3.683 28.527 4.019 2.536 4.643-.423 5.368-25.483l.682-23.579-2.376-1.664c-2.974-2.083-4.358-2.094-6.401-.051m94.904.096c-1.548 1.548-1.645 3.682-1.029 22.75.909 28.13 1.427 30.307 6.555 27.563 1.641-.879 1.886-3.244 2.556-24.684l.741-23.712-2.24-1.813c-2.792-2.261-4.4-2.287-6.583-.104m-121.425 2.082c-5.056 4.095-5.767 44.268-.837 47.315 1.887 1.167 5.278-1.39 5.598-4.221 1.007-8.905.994-8.885 5.64-8.885 8.424 0 12.593-6.033 12.586-18.218-.006-11.33-4.16-16.56-12.29-15.469-2.618.351-4.771.035-6.216-.912-1.971-1.291-2.456-1.249-4.481.39m178.635.405c-.339 1.267-.623 4.003-.63 6.079-.012 3.1-.461 3.944-2.514 4.725-2.957 1.124-3.317 3-.576 3 1.792 0 1.947.961 2.25 13.898.382 16.301 1.204 18.102 8.258 18.102 6.674 0 11.568-5.274 11.568-12.468 0-3.642-4.726-3.669-5.481-.032l-1.021 4.93c-1.2 5.816-5.814 6.741-6.886 1.381-.785-3.924-.772-17.211.021-22.008.561-3.394.909-3.722 4.239-4 4.452-.372 4.4-2.122-.083-2.803l-3.289-.5v-6c0-5.729-.118-6.014-2.619-6.304-2.023-.234-2.76.221-3.237 2M165 268.979c-1.842 1.164-2.894 24.527-1.181 26.24 1.938 1.938 5.876-.062 7.796-3.958 5.347-10.854.6-26.843-6.615-22.282m126.75.101c-2.599 1.514-2.201 4.769.671 5.49 3.389.85 5.679.233 6.972-1.879 2.01-3.283-3.63-5.948-7.643-3.611m67 0c-2.599 1.514-2.201 4.769.671 5.49 3.389.85 5.679.233 6.972-1.879 2.01-3.283-3.63-5.948-7.643-3.611m-47.423 3.616c-1.195.232-3.304 1.554-4.687 2.936-5.624 5.625-3.902 13.4 4.053 18.301 7.917 4.877 9.307 6.073 9.307 8.007 0 4.125-7.086 4.128-11.21.004-3.452-3.453-5.79-3.235-5.79.539 0 5.884 14.468 9.083 20.306 4.491 5.73-4.507 4.353-8.603-4.373-13.008-9.883-4.989-12.686-10.591-8.376-16.743 3.494-4.99 7.18-2.185 7.633 5.807.268 4.722.605 5.512 2.463 5.777 2.504.357 5.347-3.091 5.347-6.482 0-7.115-6.313-11.258-14.673-9.629m64.673.583c-8.124 4.059-8.037 24.945.13 30.987 4.289 3.172 10.854-1.413 10.866-7.589.007-3.093-3.294-1.467-4.211 2.075-.573 2.207-1.442 3.248-2.714 3.248-4.873 0-5.359-24.524-.523-26.38 2.735-1.049 4.589 2.328 4.261 7.76-.243 4.022.013 5.12 1.191 5.12 3.19 0 2.54-10.114-.87-13.524-3.292-3.292-4.453-3.535-8.13-1.697m-149.025 2.746c-2.188 2.188-2.311 10.202-.394 25.643 1.618 13.037 8.419 4.098 8.419-11.066 0-8.782 6.644-13.24 9.017-6.05 1.341 4.064 3.33 4.093 3.806.056.729-6.19-4.342-9.115-10.83-6.247-.998.442-1.842-.097-2.5-1.597-1.335-3.044-4.866-3.391-7.518-.739m29.333-.015c-3.222 1.298-5.493 5.355-5.127 9.161.497 5.161 3.444 5.009 4.328-.222 1.957-11.585 11.491-10.134 11.491 1.749v5.252l-2.674-1.016c-8.726-3.318-16.5 6.884-11.586 15.203 2.414 4.086 6.576 4.878 12.521 2.38 1.355-.569 1.619-.368 1.143.872-.98 2.556 3.296 2.008 4.987-.639 2.556-4.002 4.071-17.106 2.692-23.272-1.993-8.905-9.391-12.845-17.775-9.468m36.442 4.07c-1.848 1.077-2.469 19.121-.856 24.915.98 3.523 3.858 3.788 5.119.47 2.179-5.729 2.504-23.614.457-25.111-2.181-1.594-2.428-1.609-4.72-.274m67 0c-1.848 1.077-2.469 19.121-.856 24.915.98 3.523 3.858 3.788 5.119.47 2.179-5.729 2.504-23.614.457-25.111-2.181-1.594-2.428-1.609-4.72-.274m-163.179 3.491c-1.101 1.102-1.571 3.488-1.571 7.98 0 12.618 5.005 18.667 13.503 16.321 2.784-.769 3.964-.735 4.498.13 1.19 1.926 5.356.682 6.709-2.002 1.294-2.566 1.809-19.484.683-22.418-.74-1.929-4.732-2.083-6.26-.242-.611.736-1.454 5.799-1.872 11.25l-.761 9.91-3.184.308c-4.616.448-5.734-2.234-4.984-11.955.757-9.818-2.185-13.857-6.761-9.282m62.054 10.946c-2.136 2.137-2.17 9.795-.054 11.912 4.073 4.073 8.662-.238 8.23-7.73-.29-5.016-.411-5.21-3.426-5.503-1.896-.185-3.763.335-4.75 1.321" fill-rule="evenodd"/></svg>